<svg width="48" height="48" viewBox="0 0 48 48" fill="none" xmlns="http://www.w3.org/2000/svg">
<path d="M30 34V36C30 39.3137 27.3137 42 24 42C20.6863 42 18 39.3137 18 36V34M30 34H18M30 34H37.181C37.946 34 38.3304 34 38.6402 33.8955C39.2319 33.6959 39.6949 33.2313 39.8945 32.6396C39.9994 32.3286 39.9994 31.943 39.9994 31.1719C39.9994 30.8345 39.9991 30.6657 39.9727 30.5049C39.9228 30.2009 39.8048 29.9127 39.6251 29.6624C39.5302 29.5302 39.4095 29.4095 39.1716 29.1717L38.3926 28.3926C38.1412 28.1412 38 27.8003 38 27.4448V20C38 12.268 31.732 5.99998 24 6C16.268 6.00002 10 12.268 10 20V27.4449C10 27.8003 9.85849 28.1412 9.60713 28.3926L8.82812 29.1716C8.58952 29.4102 8.47008 29.5301 8.375 29.6625C8.19531 29.9127 8.07629 30.2009 8.0264 30.5049C8 30.6658 8 30.8345 8 31.1719C8 31.943 8 32.3285 8.1049 32.6395C8.3045 33.2312 8.7696 33.6959 9.36133 33.8955C9.67112 34 10.054 34 10.8191 34H18" stroke="#1A1A1A" stroke-width="2" stroke-linecap="round" stroke-linejoin="round"/>
</svg>
