<svg width="105" height="102" viewBox="0 0 105 102" fill="none" xmlns="http://www.w3.org/2000/svg">
<path d="M65.625 42.625V39.5H9.375V42.625H3.125V86.375H6.25V89.5H68.75V86.375H71.875V42.625H65.625ZM31.25 64.5V61.375H28.125V58.25H25V55.125H21.875V52H18.75V48.875H15.625V45.75H59.375V48.875H56.25V52H53.125V55.125H50V58.25H46.875V61.375H43.75V64.5H40.625V67.625H34.375V64.5H31.25ZM12.5 48.875V52H15.625V55.125H18.75V58.25H21.875V61.375H25V64.5H28.125V67.625H31.25V70.75H34.375V73.875H40.625V70.75H43.75V67.625H46.875V64.5H50V61.375H53.125V58.25H56.25V55.125H59.375V52H62.5V48.875H65.625V83.25H9.375V48.875H12.5Z" fill="black"/>
<path d="M87 40V44H85V46H77V44H75V40H87Z" fill="black"/>
<path d="M101 34V36H99V38H63V36H61V34H63V32H65V28H67V16H69V12H71V10H73V8H77V6H79V2H83V6H85V8H89V10H91V12H93V16H95V28H97V32H99V34H101Z" fill="black"/>
</svg>
