<svg width="113" height="92" viewBox="0 0 113 92" fill="none" xmlns="http://www.w3.org/2000/svg">
<path d="M108.667 83.3327V81.166H106.5V78.9994H104.333V76.8327H102.167V74.666H97.8334V72.4993H100V68.166H102.167V55.166H100V50.8327H97.8334V48.666H95.6667V46.4993H93.5V44.3327H89.1667V42.166H76.1667V44.3327H71.8334V46.4993H69.6667V48.666H67.5V50.8327H65.3334V55.166H63.1667V68.166H65.3334V72.4993H67.5V74.666H69.6667V76.8327H71.8334V78.9994H76.1667V81.166H89.1667V78.9994H93.5V76.8327H95.6667V81.166H97.8334V83.3327H100V85.4994H102.167V87.666H104.333V89.8327H108.667V87.666H110.833V83.3327H108.667ZM87 72.4993V74.666H78.3334V72.4993H74V70.3327H71.8334V65.9993H69.6667V57.3327H71.8334V52.9993H74V50.8327H78.3334V48.666H87V50.8327H91.3334V52.9993H93.5V57.3327H95.6667V65.9993H93.5V70.3327H91.3334V72.4993H87Z" fill="black"/>
<path d="M60 26.25V3.75H30V7.5H26.25V67.5H30V71.25H78.75V67.5H82.5V26.25H60ZM75 63.75H33.75V11.25H52.5V33.75H75V63.75Z" fill="black"/>
<path d="M82.5 18.75V22.5H63.75V3.75H67.5V7.5H71.25V11.25H75V15H78.75V18.75H82.5Z" fill="black"/>
</svg>
