<svg width="75" height="75" viewBox="0 0 75 75" fill="none" xmlns="http://www.w3.org/2000/svg">
<path d="M74.9999 20.454V27.2722H71.5908V30.6813H68.1817V27.2722H64.7726V23.8631H61.3635V20.454H64.7726V17.0449H71.5908V20.454H74.9999Z" fill="black"/>
<path d="M68.1807 30.6815V34.0906H64.7717V37.4996H61.3626V40.9087H57.9535V44.3178H54.5444V47.7269H51.1353V51.136H47.7262V54.5451H44.3171V57.9542H34.0898V47.7269H37.4989V44.3178H40.908V40.9087H44.3171V37.4996H47.7262V34.0906H51.1353V30.6815H54.5444V27.2724H57.9535V23.8633H61.3626V27.2724H64.7717V30.6815H68.1807Z" fill="black"/>
<path d="M54.5455 3.40909V0H3.40909V3.40909H0V71.5909H3.40909V75H54.5455V71.5909H57.9545V51.1364H54.5455V54.5455H51.1364V57.9545H47.7273V61.3636H30.6818V44.3182H34.0909V40.9091H37.5V37.5H40.9091V34.0909H44.3182V30.6818H47.7273V27.2727H51.1364V23.8636H54.5455V20.4545H57.9545V3.40909H54.5455ZM51.1364 13.6364H6.81818V10.2273H51.1364V13.6364ZM44.3182 23.8636H6.81818V20.4545H44.3182V23.8636ZM23.8636 54.5455H6.81818V51.1364H23.8636V54.5455ZM6.81818 44.3182V40.9091H27.2727V44.3182H6.81818ZM6.81818 34.0909V30.6818H37.5V34.0909H6.81818Z" fill="black"/>
</svg>
