<svg width="83" height="68" viewBox="0 0 83 68" fill="none" xmlns="http://www.w3.org/2000/svg">
<path d="M67.5 52.5V48.75H63.75V45H56.25V41.25H26.25V45H18.75V48.75H15V52.5H11.25V63.75H15V67.5H67.5V63.75H71.25V52.5H67.5ZM26.25 52.5V48.75H56.25V52.5H63.75V60H18.75V52.5H26.25Z" fill="black"/>
<path d="M52.5 11.25V7.5H48.75V3.75H33.75V7.5H30V11.25H26.25V26.25H30V30H33.75V33.75H48.75V30H52.5V26.25H56.25V11.25H52.5ZM33.75 26.25V11.25H48.75V26.25H33.75Z" fill="black"/>
<path d="M22.5 3.75H26.25V7.5H22.5V15H15V11.25H11.25V3.75H15V0H22.5V3.75Z" fill="black"/>
<path d="M22.5 30H26.25V33.75H3.75V30H0V22.5H3.75V18.75H22.5V30Z" fill="black"/>
<path d="M60 7.5H56.25V3.75H60V0H67.5V3.75H71.25V11.25H67.5V15H60V7.5Z" fill="black"/>
<path d="M82.5 22.5V30H78.75V33.75H56.25V30H60V18.75H78.75V22.5H82.5Z" fill="black"/>
</svg>
