<svg width="36" height="36" viewBox="0 0 36 36" fill="none" xmlns="http://www.w3.org/2000/svg">
<g clip-path="url(#clip0_2078_3875)">
<path d="M12.0001 36.0001C15.3121 36.0001 18.0002 33.312 18.0002 30V24H12.0001C8.68807 24 6 26.688 6 30C6 33.312 8.68807 36.0001 12.0001 36.0001Z" fill="#0ACF83"/>
<path d="M6 18C6 14.688 8.68807 12 12.0001 12H18.0002V24H12.0001C8.68807 24.0001 6 21.312 6 18Z" fill="#A259FF"/>
<path d="M6 6.00005C6 2.68805 8.68807 0 12.0001 0H18.0002V12H12.0001C8.68807 12 6 9.31205 6 6.00005Z" fill="#F24E1E"/>
<path d="M18 0H24.0001C27.3121 0 30.0002 2.68805 30.0002 6.00005C30.0002 9.31205 27.3121 12 24.0001 12H18V0Z" fill="#FF7262"/>
<path d="M30.0002 18C30.0002 21.312 27.3121 24.0001 24.0001 24.0001C20.6881 24.0001 18 21.312 18 18C18 14.688 20.6881 12 24.0001 12C27.3121 12 30.0002 14.688 30.0002 18Z" fill="#1ABCFE"/>
</g>
<defs>
<clipPath id="clip0_2078_3875">
<rect width="36" height="36" fill="white"/>
</clipPath>
</defs>
</svg>
