<svg width="36" height="36" viewBox="0 0 23 29" fill="none" xmlns="http://www.w3.org/2000/svg">
<path d="M7 22H16M7 17.5H16M13.0006 1.00131C12.8573 1 12.6961 1 12.5121 1H5.80029C4.12014 1 3.27943 1 2.6377 1.32698C2.07321 1.6146 1.6146 2.07321 1.32698 2.6377C1 3.27943 1 4.12014 1 5.80029V23.2003C1 24.8804 1 25.7201 1.32698 26.3618C1.6146 26.9263 2.07321 27.3857 2.6377 27.6733C3.27881 28 4.11851 28 5.79541 28L17.2046 28C18.8815 28 19.72 28 20.3611 27.6733C20.9256 27.3857 21.3857 26.9263 21.6733 26.3618C22 25.7207 22 24.8822 22 23.2054V10.4885C22 10.3045 21.9998 10.1433 21.9985 10M13.0006 1.00131C13.4288 1.00521 13.6986 1.0211 13.9573 1.08321C14.2634 1.1567 14.5568 1.2779 14.8252 1.44238C15.1279 1.62785 15.3877 1.88772 15.9062 2.40625L20.5945 7.09447C21.1133 7.61333 21.3713 7.87204 21.5568 8.17479C21.7213 8.44321 21.843 8.73588 21.9165 9.04199C21.9786 9.30068 21.9946 9.57182 21.9985 10M13.0006 1.00131L13 5.20031C13 6.88047 13 7.72023 13.327 8.36196C13.6146 8.92645 14.0732 9.38572 14.6377 9.67334C15.2788 10 16.1185 10 17.7954 10H21.9985" stroke="#1A1A1A" stroke-width="2" stroke-linecap="round" stroke-linejoin="round"/>
</svg>
