<svg width="101" height="39" viewBox="0 0 101 39" fill="none" xmlns="http://www.w3.org/2000/svg">
<path d="M85.9238 0.135742C87.4614 -0.0222108 88.8918 -0.0423094 90.2148 0.0761719C91.5736 0.155179 92.9861 0.431361 94.4521 0.905273C95.9183 1.37923 97.1341 2.051 98.0996 2.91992C100.102 4.81576 101.068 7.30404 100.996 10.3848C100.925 11.6881 100.638 12.9715 100.138 14.2354C99.6728 15.4597 99.0834 16.5462 98.3682 17.4941C97.653 18.4026 96.7763 19.2712 95.7393 20.1006C94.738 20.93 93.7725 21.6219 92.8428 22.1748C91.9131 22.7277 90.9115 23.261 89.8389 23.7744L98.0996 33.3721L92.0918 39C89.8032 35.9984 87.3895 32.9375 84.8506 29.8174L83.8311 38.3486L76 37.2227L76.0615 36.6943L69.9629 37.3281L69.6328 31.4912L63.5225 31.6699L61.5967 38.46L56.5723 36.4111V37.3799H36.9609L38.2441 26.2822C37.9465 27.0016 37.6048 27.6957 37.2148 28.3623C36.1349 30.2702 34.8922 31.8179 33.4883 33.0059C32.1203 34.1578 30.6081 35.1299 28.9521 35.9219C27.2963 36.7138 25.7485 37.2717 24.3086 37.5957C22.9047 37.9197 21.5547 38.0997 20.2588 38.1357L15.6689 38.2979L20.3125 0.929688L23.9307 1.03809C24.3986 1.0381 24.9566 1.09221 25.6045 1.2002C26.2885 1.3082 27.2606 1.5414 28.5205 1.90137C29.8165 2.22537 31.1486 2.8196 32.5166 3.68359C33.9206 4.5476 35.1445 5.61012 36.1885 6.87012C38.0154 9.09612 39.1418 11.7389 39.5723 14.7979L41.2412 0.379883H60.9609L59.9316 9.2959H48.2295L47.7422 13.1787H53.4844V22.0342H46.7129L45.9541 28.4639H56.415L66.2197 0.459961H74.6973L77.1641 27.3809L80.291 0.964844C80.9704 0.806876 81.6857 0.668286 82.4365 0.549805C83.2232 0.391821 84.3861 0.254233 85.9238 0.135742ZM12 0.378906L7.75586 38.1357L0 37.9541L4.29688 0.135742L12 0.378906ZM24.7949 29.1182C25.0827 28.9743 25.3704 28.8482 25.6582 28.7402C29.0422 27.1203 31.0226 24.456 31.5986 20.748C32.2106 16.8603 31.7067 13.944 30.0869 12C29.3669 11.1 28.4126 10.3798 27.2246 9.83984L24.7949 29.1182ZM66.0547 22.8545L69.1377 22.7949L69.0273 12.1934L66.0547 22.8545ZM87.3184 8.60742L86.46 15.8945C88.3195 15.0256 89.8754 14.0777 91.127 13.0508C92.4141 12.024 93.0755 11.0166 93.1113 10.0293C93.1113 9.83181 93.0934 9.69325 93.0576 9.61426C92.8788 9.25891 92.2351 9.0027 91.127 8.84473C90.0542 8.64726 88.7844 8.56794 87.3184 8.60742Z" fill="#1A1A1A"/>
</svg>
