<svg width="72" height="28" viewBox="0 0 72 28" fill="none" xmlns="http://www.w3.org/2000/svg">
<path d="M61.2529 0.0966797C62.3489 -0.0166978 63.3685 -0.0303673 64.3115 0.0546875C65.2802 0.111395 66.2869 0.310162 67.332 0.650391C68.3772 0.990669 69.2443 1.47283 69.9326 2.09668C71.3601 3.45777 72.0481 5.24434 71.9971 7.45605C71.9461 8.39169 71.7426 9.31342 71.3857 10.2207C71.0544 11.0995 70.6337 11.8791 70.124 12.5596C69.6142 13.2118 68.9893 13.8362 68.25 14.4316C67.5364 15.027 66.8482 15.523 66.1855 15.9199C65.5228 16.3169 64.8087 16.6997 64.0439 17.0684L69.9326 23.959L65.6504 28C64.0189 25.8449 62.2973 23.6474 60.4873 21.4072L59.7607 27.5322L54.1787 26.7236L54.2227 26.3447L49.875 26.7998L49.6396 22.6094L45.2842 22.7373L43.9102 27.6123L40.3291 26.1416V26.8369H26.3486L27.2637 18.8633C27.051 19.3816 26.8082 19.8821 26.5293 20.3623C25.7594 21.7321 24.8738 22.8434 23.873 23.6963C22.8979 24.5233 21.8201 25.2214 20.6396 25.79C19.4592 26.3586 18.3556 26.7596 17.3291 26.9922C16.3282 27.2248 15.3653 27.354 14.4414 27.3799L11.1699 27.4961L14.4805 0.667969L17.0596 0.745117C17.3932 0.745133 17.7911 0.783806 18.2529 0.861328C18.7404 0.938868 19.4332 1.10688 20.3311 1.36523C21.2548 1.59782 22.2046 2.02437 23.1797 2.64453C24.1806 3.26484 25.0536 4.028 25.7979 4.93262C27.1001 6.53071 27.9031 8.42795 28.21 10.624L29.3994 0.272461H43.457L42.7236 6.67383H34.3818L34.0342 9.46094H38.1279V15.8193H33.2998L32.7598 20.4355H40.2168L47.207 0.330078H53.25L55.0088 19.6572L57.2373 0.692383C57.7216 0.578977 58.2314 0.479591 58.7666 0.394531C59.3274 0.281106 60.1568 0.18175 61.2529 0.0966797ZM8.55469 0.271484L5.52832 27.3799L0 27.249L3.06348 0.0976562L8.55469 0.271484ZM17.6748 20.9053C17.8801 20.8019 18.0858 20.7113 18.291 20.6338C20.7034 19.4707 22.1148 17.5577 22.5254 14.8955C22.9616 12.1044 22.6029 10.0109 21.4482 8.61523C20.935 7.96908 20.2541 7.45215 19.4072 7.06445L17.6748 20.9053ZM47.0889 16.4092L49.2861 16.3662L49.208 8.75391L47.0889 16.4092ZM62.2471 6.17969L61.6348 11.4111C62.9603 10.7873 64.0697 10.1074 64.9619 9.37012C65.8796 8.63285 66.3505 7.90911 66.376 7.2002C66.376 7.05857 66.3634 6.95902 66.3379 6.90234C66.2101 6.64739 65.7516 6.46297 64.9619 6.34961C64.1972 6.20784 63.2921 6.15136 62.2471 6.17969Z" fill="#1A1A1A"/>
</svg>
