<svg width="24" height="24" viewBox="0 0 24 24" fill="none" xmlns="http://www.w3.org/2000/svg">
<path fill-rule="evenodd" clip-rule="evenodd" d="M11.8076 22.6152C5.88916 22.6152 1 17.7261 1 11.8076C1 5.88916 5.88086 1 11.7993 1C17.7178 1 22.6152 5.88916 22.6152 11.8076C22.6152 17.7261 17.7261 22.6152 11.8076 22.6152ZM10.4795 17.2363C10.7866 17.2363 11.0522 17.0952 11.2515 16.7881L16.8296 8.04736C16.9541 7.86475 17.062 7.64062 17.062 7.44141C17.062 7.00146 16.6719 6.72754 16.2651 6.72754C16.0244 6.72754 15.7837 6.86865 15.6011 7.15088L10.438 15.3604L7.69043 11.9155C7.47461 11.6416 7.25049 11.542 6.98486 11.542C6.57812 11.542 6.23779 11.8657 6.23779 12.3057C6.23779 12.5132 6.3208 12.7373 6.46191 12.9116L9.66602 16.7964C9.92334 17.1118 10.1724 17.2363 10.4795 17.2363Z" fill="#B9B9B9"/>
</svg>
