<svg width="32" height="32" viewBox="0 0 32 32" fill="none" xmlns="http://www.w3.org/2000/svg">
<path d="M12.0003 22.6667H20.0003M12.0003 18.6667H20.0003M17.3342 4.00116C17.2068 4 17.0635 4 16.8999 4H10.9339C9.44045 4 8.69315 4 8.12272 4.29065C7.62096 4.54631 7.2133 4.95396 6.95764 5.45573C6.66699 6.02616 6.66699 6.77345 6.66699 8.26693V23.7336C6.66699 25.2271 6.66699 25.9734 6.95764 26.5438C7.2133 27.0456 7.62096 27.454 8.12272 27.7096C8.6926 28 9.439 28 10.9296 28L21.0711 28C22.5617 28 23.307 28 23.8769 27.7096C24.3786 27.454 24.7876 27.0456 25.0433 26.5438C25.3337 25.974 25.3337 25.2287 25.3337 23.7381V12.4342C25.3337 12.2707 25.3335 12.1274 25.3324 12M17.3342 4.00116C17.7148 4.00463 17.9546 4.01876 18.1846 4.07396C18.4567 4.13929 18.7175 4.24702 18.9561 4.39323C19.2251 4.55809 19.4561 4.78908 19.917 5.25L24.0843 9.41731C24.5455 9.87852 24.7748 10.1085 24.9397 10.3776C25.0859 10.6162 25.1941 10.8763 25.2594 11.1484C25.3146 11.3784 25.3289 11.6194 25.3324 12M17.3342 4.00116L17.3337 7.73361C17.3337 9.22709 17.3337 9.97354 17.6243 10.544C17.88 11.0457 18.2876 11.454 18.7894 11.7096C19.3593 12 20.1057 12 21.5962 12H25.3324" stroke="#1A1A1A" stroke-width="2" stroke-linecap="round" stroke-linejoin="round"/>
</svg>
