<svg width="36" height="36" viewBox="0 0 36 36" fill="none" xmlns="http://www.w3.org/2000/svg">
<path d="M4.50008 25.5001C4.5 25.4032 4.5 25.3034 4.5 25.2003V10.8003C4.5 9.12014 4.5 8.27943 4.82698 7.6377C5.1146 7.07321 5.57321 6.6146 6.1377 6.32698C6.77943 6 7.62014 6 9.30029 6H26.7003C28.3805 6 29.2201 6 29.8618 6.32698C30.4263 6.6146 30.8857 7.07321 31.1733 7.6377C31.5 8.2788 31.5 9.11849 31.5 10.7954V25.2046C31.5 25.9322 31.5 26.5019 31.4733 26.9661M4.50008 25.5001C4.50123 26.9826 4.52006 27.7587 4.82698 28.3611C5.1146 28.9256 5.57321 29.3857 6.1377 29.6733C6.7788 30 7.61849 30 9.29537 30H26.7054C28.3822 30 29.2207 30 29.8618 29.6733C30.4263 29.3857 30.8857 28.9256 31.1733 28.3611C31.3583 27.9981 31.4385 27.5719 31.4733 26.9661M4.50008 25.5001L11.652 17.1562L11.6541 17.1539C12.2884 16.4139 12.6061 16.0433 12.9829 15.9097C13.3139 15.7923 13.6753 15.7951 14.0046 15.917C14.38 16.0559 14.6926 16.4308 15.3179 17.1812L19.3246 21.9893C19.9034 22.6838 20.1945 23.0331 20.5479 23.1733C20.8597 23.297 21.2035 23.3109 21.5251 23.216C21.8913 23.1079 22.2136 22.7857 22.8582 22.1411L23.6038 21.3955C24.26 20.7393 24.5881 20.4114 24.9595 20.3042C25.2857 20.2101 25.6344 20.2303 25.9482 20.3599C26.3055 20.5074 26.5953 20.8686 27.175 21.5933L31.4733 26.9661M31.4733 26.9661L31.5 26.9994M22.5 15C21.6716 15 21 14.3284 21 13.5C21 12.6716 21.6716 12 22.5 12C23.3284 12 24 12.6716 24 13.5C24 14.3284 23.3284 15 22.5 15Z" stroke="#1A1A1A" stroke-width="2" stroke-linecap="round" stroke-linejoin="round"/>
</svg>
