<svg width="215" height="270" viewBox="0 0 215 270" fill="none" xmlns="http://www.w3.org/2000/svg">
<rect width="215" height="270" rx="4" fill="#B9B9B9"/>
<path fill-rule="evenodd" clip-rule="evenodd" d="M142.924 116.136C144.461 115.978 145.892 115.958 147.215 116.076C148.574 116.155 149.986 116.431 151.452 116.905C152.918 117.379 154.134 118.051 155.1 118.92C157.102 120.816 158.068 123.304 157.996 126.385C157.925 127.688 157.638 128.971 157.138 130.235C156.673 131.46 156.083 132.546 155.368 133.494C154.653 134.402 153.776 135.271 152.739 136.1C151.738 136.93 150.773 137.622 149.843 138.175C148.913 138.728 147.912 139.261 146.839 139.774L155.1 149.372L149.092 155C146.803 151.998 144.389 148.937 141.851 145.817L140.831 154.348L133 153.223L133.062 152.694L126.963 153.328L126.633 147.491L120.522 147.67L118.597 154.46L113.572 152.411V153.38H93.9609L95.2441 142.282C94.9465 143.001 94.6048 143.696 94.2148 144.362C93.1349 146.27 91.8922 147.818 90.4883 149.006C89.1203 150.158 87.6081 151.13 85.9521 151.922C84.2963 152.714 82.7485 153.272 81.3086 153.596C79.9047 153.92 78.5547 154.1 77.2588 154.136L72.6689 154.298L77.3125 116.93L80.9307 117.038C81.3986 117.038 81.9566 117.092 82.6045 117.2C83.2885 117.308 84.2606 117.541 85.5205 117.901C86.8165 118.225 88.1486 118.819 89.5166 119.683C90.9206 120.547 92.1445 121.61 93.1885 122.87C95.0154 125.096 96.1418 127.739 96.5723 130.798L98.2412 116.38H117.961L116.932 125.296H105.229L104.742 129.179H110.484V138.034H103.713L102.954 144.464H113.415L123.22 116.46H131.697L134.164 143.381L137.291 116.965C137.97 116.807 138.686 116.668 139.437 116.55C140.223 116.392 141.386 116.254 142.924 116.136ZM69 116.379L64.7559 154.136L57 153.954L61.2969 116.136L69 116.379ZM81.7949 145.118C82.0827 144.974 82.3704 144.848 82.6582 144.74C86.0422 143.12 88.0226 140.456 88.5986 136.748C89.2106 132.86 88.7067 129.944 87.0869 128C86.3669 127.1 85.4126 126.38 84.2246 125.84L81.7949 145.118ZM123.055 138.854L126.138 138.795L126.027 128.193L123.055 138.854ZM144.318 124.607L143.46 131.894C145.319 131.025 146.875 130.078 148.127 129.051C149.414 128.024 150.076 127.016 150.111 126.029C150.111 125.832 150.093 125.693 150.058 125.614C149.879 125.259 149.235 125.003 148.127 124.845C147.054 124.647 145.784 124.568 144.318 124.607Z" fill="black" fill-opacity="0.5"/>
</svg>
