<svg width="430" height="519" viewBox="0 0 430 519" fill="none" xmlns="http://www.w3.org/2000/svg">
<rect width="430" height="519" rx="4" fill="#B9B9B9"/>
<g opacity="0.5">
<path d="M250.924 240.136C252.461 239.978 253.892 239.958 255.215 240.076C256.574 240.155 257.986 240.431 259.452 240.905C260.918 241.379 262.134 242.051 263.1 242.92C265.102 244.816 266.068 247.304 265.996 250.385C265.925 251.688 265.638 252.972 265.138 254.235C264.673 255.46 264.083 256.546 263.368 257.494C262.653 258.403 261.776 259.271 260.739 260.101C259.738 260.93 258.773 261.622 257.843 262.175C256.913 262.728 255.912 263.261 254.839 263.774L263.1 273.372L257.092 279C254.803 275.998 252.389 272.938 249.851 269.817L248.831 278.349L241 277.223L241.062 276.694L234.963 277.328L234.633 271.491L228.522 271.67L226.597 278.46L221.572 276.411V277.38H201.961L203.244 266.282C202.947 267.002 202.605 267.696 202.215 268.362C201.135 270.27 199.892 271.818 198.488 273.006C197.12 274.158 195.608 275.13 193.952 275.922C192.296 276.714 190.748 277.272 189.309 277.596C187.905 277.92 186.555 278.1 185.259 278.136L180.669 278.298L185.312 240.93L188.931 241.038C189.399 241.038 189.957 241.092 190.604 241.2C191.288 241.308 192.261 241.541 193.521 241.901C194.817 242.225 196.149 242.82 197.517 243.684C198.921 244.548 200.144 245.61 201.188 246.87C203.015 249.096 204.142 251.739 204.572 254.798L206.241 240.38H225.961L224.932 249.296H213.229L212.742 253.179H218.484V262.034H211.713L210.954 268.464H221.415L231.22 240.46H239.697L242.164 267.381L245.291 240.965C245.97 240.807 246.686 240.668 247.437 240.55C248.223 240.392 249.386 240.254 250.924 240.136ZM177 240.379L172.756 278.136L165 277.954L169.297 240.136L177 240.379ZM189.795 269.118C190.083 268.974 190.37 268.848 190.658 268.74C194.042 267.12 196.023 264.456 196.599 260.748C197.211 256.86 196.707 253.944 195.087 252C194.367 251.1 193.413 250.38 192.225 249.84L189.795 269.118ZM231.055 262.854L234.138 262.795L234.027 252.193L231.055 262.854ZM252.318 248.607L251.46 255.895C253.319 255.026 254.875 254.078 256.127 253.051C257.414 252.024 258.076 251.017 258.111 250.029C258.111 249.832 258.093 249.693 258.058 249.614C257.879 249.259 257.235 249.003 256.127 248.845C255.054 248.647 253.784 248.568 252.318 248.607Z" fill="#1A1A1A"/>
</g>
</svg>
